<svg xmlns="http://www.w3.org/2000/svg" id="Layer_2" data-name="Layer 2" viewBox="0 0 400 60"><defs><style>      .cls-1, .cls-2 {        fill: #ad8350;      }      .cls-2 {        fill-rule: evenodd;      }      .cls-3 {        fill: #88191b;      }    </style></defs><g id="Layer_1-2" data-name="Layer 1"><g><g><g><path class="cls-3" d="M112.63,22.15l-12.51,30.41h5.3l2.34-5.86h13.07l2.32,5.86h5.39l-12.42-30.41h-3.48ZM109.48,42.36l4.83-12.13,4.79,12.13h-9.62Z"></path><path class="cls-3" d="M141.93,31.28c-2.38,0-4.15.82-5.32,2.46-.04.06-.07.13-.11.18v-2.2h-4.78v20.85h4.78v-11.6c0-1.8.43-3.11,1.3-3.95.87-.84,1.97-1.26,3.3-1.26.61,0,1.14.09,1.61.26s.88.46,1.26.87l3.13-3.21c-.72-.84-1.51-1.45-2.35-1.82s-1.78-.57-2.82-.57Z"></path><path class="cls-3" d="M152.18,22.15c-.81,0-1.48.28-2.02.83-.54.55-.8,1.23-.8,2.04s.27,1.49.8,2.04c.54.55,1.21.83,2.02.83s1.52-.27,2.04-.83c.52-.55.78-1.23.78-2.04s-.26-1.49-.78-2.04c-.52-.55-1.2-.83-2.04-.83Z"></path><rect class="cls-3" x="149.79" y="31.71" width="4.78" height="20.85"></rect><path class="cls-3" d="M174.74,34.05c-.6-.7-1.31-1.29-2.15-1.75-1.23-.68-2.64-1.02-4.24-1.02-1.88,0-3.58.49-5.1,1.46-1.52.97-2.72,2.27-3.61,3.91-.88,1.64-1.33,3.48-1.33,5.54s.44,3.86,1.33,5.5c.88,1.64,2.09,2.93,3.61,3.89,1.52.95,3.22,1.43,5.1,1.43,1.59,0,3.01-.34,4.26-1.02.83-.46,1.53-1.03,2.13-1.72v2.3h4.78v-20.85h-4.78v2.34ZM173.41,46.7c-1.09,1.19-2.51,1.78-4.28,1.78-1.16,0-2.18-.27-3.06-.8-.88-.54-1.58-1.28-2.09-2.24-.51-.96-.76-2.06-.76-3.3s.25-2.35.76-3.3c.51-.96,1.2-1.7,2.09-2.24.88-.54,1.9-.8,3.06-.8s2.22.27,3.11.8c.88.54,1.57,1.28,2.06,2.24.49.96.74,2.06.74,3.3,0,1.85-.54,3.37-1.63,4.56Z"></path><path class="cls-3" d="M199.76,34.05c-.6-.7-1.31-1.29-2.15-1.75-1.23-.68-2.64-1.02-4.24-1.02-1.88,0-3.58.49-5.1,1.46-1.52.97-2.72,2.27-3.61,3.91-.88,1.64-1.33,3.48-1.33,5.54s.44,3.86,1.33,5.5c.88,1.64,2.09,2.93,3.61,3.89,1.52.95,3.22,1.43,5.1,1.43,1.59,0,3.01-.34,4.26-1.02.83-.46,1.53-1.03,2.13-1.72v2.3h4.78v-31.28h-4.78v12.76ZM197.26,47.68c-.88.54-1.92.8-3.11.8s-2.18-.27-3.06-.8c-.88-.54-1.58-1.28-2.09-2.24-.51-.96-.76-2.06-.76-3.3s.25-2.35.76-3.3c.51-.96,1.2-1.7,2.09-2.24.88-.54,1.9-.8,3.06-.8s2.22.27,3.11.8c.88.54,1.57,1.28,2.06,2.24.49.96.74,2.06.74,3.3s-.25,2.35-.74,3.3c-.49.96-1.18,1.7-2.06,2.24Z"></path><path class="cls-3" d="M224.74,32.47c-1.22-.8-2.61-1.2-4.17-1.2s-2.92.36-4.15,1.06c-.81.47-1.49,1.05-2.06,1.74v-2.37h-4.78v20.85h4.78v-12.03c0-.93.2-1.75.61-2.48.41-.72.97-1.29,1.7-1.69.72-.4,1.55-.61,2.48-.61,1.39,0,2.53.45,3.41,1.35.88.9,1.33,2.04,1.33,3.43v12.03h4.78v-13.08c0-1.36-.35-2.67-1.04-3.93-.7-1.26-1.65-2.29-2.87-3.08Z"></path><path class="cls-3" d="M247.98,32.62c-1.49-.9-3.21-1.35-5.15-1.35s-3.82.48-5.45,1.43c-1.64.96-2.93,2.25-3.89,3.89-.95,1.64-1.43,3.48-1.43,5.54s.48,3.91,1.46,5.56c.97,1.65,2.29,2.95,3.95,3.89,1.67.94,3.54,1.41,5.63,1.41,1.62,0,3.16-.3,4.6-.91,1.45-.61,2.68-1.51,3.69-2.69l-3.04-3.08c-.64.72-1.41,1.27-2.33,1.65-.91.38-1.9.56-2.97.56-1.25,0-2.35-.27-3.3-.8-.96-.54-1.69-1.29-2.22-2.28-.25-.47-.43-.98-.56-1.52h15.55c.09-.43.15-.83.19-1.2.04-.36.07-.72.07-1.06,0-2-.43-3.78-1.28-5.34-.86-1.56-2.03-2.79-3.52-3.69ZM237.49,38.64c.49-.94,1.19-1.67,2.09-2.19.9-.52,1.95-.78,3.17-.78s2.14.23,2.93.69c.8.46,1.41,1.13,1.85,2,.24.48.41,1.04.54,1.65h-11.06c.12-.49.27-.95.49-1.37Z"></path><path class="cls-3" d="M283.16,36.25c.89-.58,1.63-1.25,2.19-2.02.88-1.22,1.33-2.62,1.33-4.21,0-1.36-.33-2.64-1-3.82-.67-1.19-1.68-2.16-3.04-2.91s-3.07-1.13-5.13-1.13h-11.56v30.41h11.95c2.17,0,4-.4,5.5-1.19,1.49-.8,2.62-1.85,3.39-3.15.77-1.3,1.15-2.74,1.15-4.3,0-1.91-.54-3.58-1.61-5-.81-1.08-1.87-1.97-3.16-2.68ZM277.37,26.5c1.3,0,2.34.33,3.13,1,.78.67,1.17,1.65,1.17,2.95s-.39,2.29-1.17,2.95c-.78.67-1.82,1-3.13,1h-6.43v-7.91h6.43ZM281.67,46.79c-.84.96-2.03,1.43-3.56,1.43h-7.17v-9.47h7.17c1.01,0,1.88.22,2.61.65.72.43,1.27,1.01,1.65,1.74.38.72.56,1.51.56,2.35,0,1.25-.42,2.35-1.26,3.3Z"></path><path class="cls-3" d="M307,32.62c-1.49-.9-3.21-1.35-5.15-1.35s-3.82.48-5.45,1.43c-1.64.96-2.93,2.25-3.89,3.89-.95,1.64-1.43,3.48-1.43,5.54s.48,3.91,1.46,5.56c.97,1.65,2.29,2.95,3.95,3.89,1.67.94,3.54,1.41,5.63,1.41,1.62,0,3.16-.3,4.6-.91,1.45-.61,2.68-1.51,3.69-2.69l-3.04-3.08c-.64.72-1.41,1.27-2.33,1.65-.91.38-1.9.56-2.97.56-1.25,0-2.35-.27-3.3-.8-.96-.54-1.69-1.29-2.22-2.28-.25-.47-.43-.98-.56-1.52h15.55c.09-.43.15-.83.19-1.2.04-.36.07-.72.07-1.06,0-2-.43-3.78-1.28-5.34-.86-1.56-2.03-2.79-3.52-3.69ZM296.51,38.64c.49-.94,1.19-1.67,2.09-2.19.9-.52,1.95-.78,3.17-.78s2.14.23,2.93.69c.8.46,1.41,1.13,1.85,2,.24.48.41,1.04.54,1.65h-11.06c.12-.49.27-.95.49-1.37Z"></path><path class="cls-3" d="M325.68,31.28c-2.38,0-4.15.82-5.32,2.46-.04.06-.07.13-.11.18v-2.2h-4.78v20.85h4.78v-11.6c0-1.8.43-3.11,1.3-3.95.87-.84,1.97-1.26,3.3-1.26.61,0,1.14.09,1.61.26s.88.46,1.26.87l3.13-3.21c-.72-.84-1.51-1.45-2.35-1.82s-1.78-.57-2.82-.57Z"></path><path class="cls-3" d="M343.72,31.28c-2.38,0-4.15.82-5.32,2.46-.04.06-.07.13-.11.18v-2.2h-4.78v20.85h4.78v-11.6c0-1.8.43-3.11,1.3-3.95.87-.84,1.97-1.26,3.3-1.26.61,0,1.14.09,1.61.26s.88.46,1.26.87l3.13-3.21c-.72-.84-1.51-1.45-2.35-1.82-.84-.38-1.78-.57-2.82-.57Z"></path><path class="cls-3" d="M353.96,22.15c-.81,0-1.48.28-2.02.83-.54.55-.8,1.23-.8,2.04s.27,1.49.8,2.04c.54.55,1.21.83,2.02.83s1.52-.27,2.04-.83c.52-.55.78-1.23.78-2.04s-.26-1.49-.78-2.04c-.52-.55-1.2-.83-2.04-.83Z"></path><rect class="cls-3" x="351.58" y="31.71" width="4.78" height="20.85"></rect><path class="cls-3" d="M376.45,32.71c-1.65-.96-3.51-1.43-5.56-1.43s-3.87.49-5.52,1.46c-1.65.97-2.96,2.27-3.93,3.89-.97,1.62-1.46,3.45-1.46,5.47s.48,3.87,1.46,5.52c.97,1.65,2.28,2.96,3.93,3.93,1.65.97,3.49,1.46,5.52,1.46s3.91-.48,5.56-1.46c1.65-.97,2.96-2.28,3.93-3.93.97-1.65,1.46-3.49,1.46-5.52s-.49-3.86-1.46-5.5c-.97-1.64-2.28-2.93-3.93-3.89ZM376.17,45.35c-.51.96-1.22,1.7-2.13,2.24-.91.54-1.96.8-3.15.8s-2.19-.27-3.11-.8c-.91-.54-1.62-1.28-2.13-2.24-.51-.96-.76-2.04-.76-3.26s.25-2.29.76-3.21c.51-.93,1.22-1.66,2.13-2.19.91-.54,1.95-.8,3.11-.8s2.23.27,3.13.8c.9.54,1.61,1.27,2.13,2.19.52.93.78,2,.78,3.21s-.25,2.3-.76,3.26Z"></path><path class="cls-3" d="M397.2,41.38c-.83-.48-1.69-.85-2.61-1.13-.91-.27-1.78-.53-2.61-.76-.82-.23-1.5-.51-2.02-.82-.52-.32-.78-.77-.78-1.35s.26-.97.78-1.26c.52-.29,1.26-.43,2.22-.43,1.01,0,1.91.19,2.69.57.78.38,1.48.94,2.09,1.69l3.04-3.04c-.87-1.19-1.95-2.08-3.24-2.67-1.29-.59-2.77-.89-4.45-.89-1.59,0-2.96.26-4.11.78-1.14.52-2.03,1.26-2.65,2.22-.62.96-.93,2.1-.93,3.43,0,1.25.26,2.26.78,3.04.52.78,1.19,1.4,2.02,1.85s1.69.8,2.61,1.06c.91.26,1.78.51,2.61.76.83.25,1.5.54,2.02.89.52.35.78.84.78,1.48s-.28,1.07-.83,1.39c-.55.32-1.36.48-2.43.48-1.19,0-2.25-.21-3.19-.63-.94-.42-1.77-1.05-2.5-1.89l-3.04,3.04c.67.81,1.45,1.5,2.35,2.06.9.56,1.88,1,2.95,1.3,1.07.3,2.19.46,3.35.46,2.43,0,4.36-.59,5.78-1.78,1.42-1.19,2.13-2.8,2.13-4.82,0-1.27-.26-2.31-.78-3.11-.52-.8-1.19-1.43-2.02-1.91Z"></path></g><g><polygon class="cls-1" points="129.14 7.1 127.99 7.1 127.99 14.12 128.78 14.12 129.14 14.12 132.45 14.12 132.45 13.07 129.14 13.07 129.14 7.1"></polygon><path class="cls-1" d="M138.27,7.1l-2.89,7.02h1.22l.54-1.35h3.02l.53,1.35h1.24l-2.87-7.02h-.8ZM137.55,11.76l1.12-2.8,1.11,2.8h-2.22Z"></path><polygon class="cls-1" points="150.71 12.03 149.17 7.1 148.37 7.1 146.82 12.03 145.24 7.1 144.11 7.1 146.41 14.12 147.21 14.12 148.77 9.2 150.32 14.12 151.13 14.12 153.43 7.1 152.3 7.1 150.71 12.03"></polygon><path class="cls-1" d="M166.21,8.05c-.33-.33-.71-.59-1.14-.77-.43-.18-.9-.28-1.4-.28s-.97.09-1.4.28c-.43.18-.81.44-1.13.77-.32.33-.58.71-.76,1.15-.18.43-.28.9-.28,1.4s.09.97.28,1.41c.18.44.44.82.77,1.15.33.33.71.59,1.14.78.43.19.9.28,1.4.28s.96-.09,1.39-.28c.43-.19.81-.44,1.13-.77.32-.33.58-.71.76-1.15.18-.44.28-.91.28-1.41s-.09-.97-.28-1.41c-.18-.44-.44-.82-.77-1.15ZM165.77,11.91c-.2.38-.48.67-.84.89-.36.21-.77.32-1.25.32-.35,0-.67-.06-.96-.19-.29-.12-.55-.3-.76-.52-.21-.22-.37-.49-.49-.8-.12-.31-.17-.65-.17-1.02,0-.49.1-.93.31-1.3.2-.37.48-.67.84-.88.36-.21.77-.32,1.24-.32.35,0,.68.06.97.18.29.12.54.29.76.52.21.22.38.49.5.79.12.3.17.64.17,1.01,0,.49-.1.93-.31,1.31Z"></path><polygon class="cls-1" points="171.53 7.1 170.73 7.1 170.73 14.12 171.89 14.12 171.89 11.11 175.1 11.11 175.1 10.06 171.89 10.06 171.89 8.15 175.27 8.15 175.27 7.1 171.89 7.1 171.53 7.1"></polygon><polygon class="cls-1" points="179.42 7.1 178.63 7.1 178.63 14.12 179.78 14.12 179.78 11.11 182.99 11.11 182.99 10.06 179.78 10.06 179.78 8.15 183.16 8.15 183.16 7.1 179.78 7.1 179.42 7.1"></polygon><rect class="cls-1" x="186.54" y="7.1" width="1.15" height="7.02"></rect><path class="cls-1" d="M195.81,12.92c-.3.13-.66.2-1.09.2-.35,0-.67-.06-.95-.18-.29-.12-.54-.29-.75-.52-.21-.22-.37-.49-.49-.8-.11-.31-.17-.64-.17-1.01s.06-.7.17-1.01c.11-.31.28-.57.49-.8.21-.22.46-.4.75-.52.29-.12.61-.18.95-.18.39,0,.74.06,1.04.19.3.13.55.3.76.53l.78-.78c-.32-.32-.69-.57-1.1-.76-.41-.19-.91-.28-1.47-.28-.51,0-.98.09-1.41.28-.43.19-.81.44-1.13.77-.32.33-.57.71-.74,1.15-.17.44-.26.91-.26,1.41s.09.97.26,1.41c.17.44.42.82.74,1.15.32.33.7.59,1.13.77.43.18.9.28,1.41.28.56,0,1.06-.09,1.49-.28.43-.19.81-.44,1.13-.77l-.78-.78c-.21.23-.46.41-.76.54Z"></path><polygon class="cls-1" points="201.74 11.04 204.97 11.04 204.97 10.03 201.74 10.03 201.74 8.15 205.26 8.15 205.26 7.1 201.74 7.1 201.38 7.1 200.58 7.1 200.58 14.12 201.38 14.12 201.74 14.12 205.31 14.12 205.31 13.07 201.74 13.07 201.74 11.04"></polygon><path class="cls-1" d="M212.59,10.63c-.2-.16-.41-.29-.65-.39-.24-.1-.47-.19-.71-.27-.24-.08-.45-.17-.65-.26-.2-.09-.36-.2-.48-.33-.12-.13-.18-.3-.18-.52,0-.25.1-.45.3-.59.2-.14.47-.21.82-.21.28,0,.53.06.75.17s.43.28.63.51l.78-.78c-.23-.28-.52-.51-.89-.69-.36-.18-.78-.27-1.24-.27-.43,0-.82.08-1.16.23-.35.15-.62.38-.83.67-.2.29-.31.64-.31,1.06,0,.36.06.66.18.89.12.23.28.43.48.57.2.15.41.27.65.37.24.1.47.18.71.26.24.08.46.16.65.26.2.1.36.22.48.37.12.15.18.34.18.57,0,.28-.12.5-.35.66-.23.16-.54.24-.93.24-.41,0-.76-.08-1.02-.24-.27-.16-.5-.38-.69-.66l-.78.78c.31.39.65.68,1.04.88.39.2.86.3,1.41.3.76,0,1.35-.18,1.8-.55.44-.37.67-.87.67-1.49,0-.37-.06-.68-.18-.93-.12-.25-.28-.45-.48-.61Z"></path><path class="cls-1" d="M226.16,8.05c-.33-.33-.71-.59-1.14-.77-.43-.18-.9-.28-1.4-.28s-.97.09-1.4.28c-.43.18-.81.44-1.13.77-.32.33-.58.71-.76,1.15-.18.43-.28.9-.28,1.4s.09.97.28,1.41c.18.44.44.82.77,1.15.33.33.71.59,1.14.78.43.19.9.28,1.4.28s.96-.09,1.39-.28c.43-.19.81-.44,1.13-.77.32-.33.58-.71.76-1.15.18-.44.28-.91.28-1.41s-.09-.97-.28-1.41c-.18-.44-.44-.82-.77-1.15ZM225.72,11.91c-.2.38-.48.67-.84.89-.36.21-.77.32-1.25.32-.35,0-.67-.06-.96-.19-.29-.12-.55-.3-.76-.52-.21-.22-.37-.49-.49-.8-.12-.31-.17-.65-.17-1.02,0-.49.1-.93.31-1.3.2-.37.48-.67.84-.88.36-.21.77-.32,1.24-.32.35,0,.68.06.97.18.29.12.54.29.76.52.21.22.38.49.5.79.12.3.17.64.17,1.01,0,.49-.1.93-.31,1.31Z"></path><polygon class="cls-1" points="235.22 8.15 235.22 7.1 231.84 7.1 231.48 7.1 230.68 7.1 230.68 14.12 231.84 14.12 231.84 11.11 235.05 11.11 235.05 10.06 231.84 10.06 231.84 8.15 235.22 8.15"></polygon></g></g><path class="cls-2" d="M87.61,32.24c-.98-.62-1.81-.04-2.6.34-.61.29-.8.2-1.53.19-.54-.01-.98.1-1.63.1h-.6c.51-4.85-.19-9.77-2.04-14.32.65-.57,1.29-1.17,1.96-1.82.31-.3.48-.28.76-.59l1.32-1.39c.25-.26.38-.45.63-.72.27-.28.37-.43.62-.73.21-.25.47-.49.65-.71.27-.35.71-1.28.93-1.77.32-.71.61-1.22.6-2.15,0-1.26-.19-2.05-.96-2.61-.5-.37-1.5-.94-2.42-.74-1.06.23-2.65,1.43-3.48,2.22-1.21,1.16-2.38,2.4-3.38,3.74-.25.33-.49.66-.72.99-1.39-1.9-3.02-3.67-4.9-5.26C58.25-3.59,39.46-1.99,28.85,10.58c-6.42,7.61-8.36,17.5-6.11,26.47.27,0,.51-.01.78.06.26-.11.52-.22.78-.34.06-.11.12-.24.18-.35-2.12-8.46-.54-17.71,5.51-24.89C40.06-.42,57.92-1.93,69.88,8.15c1.91,1.61,3.58,3.41,4.99,5.35-2.13,3.11-4.05,6.45-5.51,9.92-.47,1.1-.34,1.23-1.46,1.8-1.31.67-5.35,2.69-6.58,2.98.08-1.44.76-3.81,1.07-5.32.67-3.26,1.88-7.94.18-10.88-.36-.63-1.2-.92-2.03-1.11-1.75-.4-4.27.95-5.74,1.87-.94.59-2.03,1.16-2.88,1.8-1.83,1.36-3.92,2.41-5.72,3.76-1.49,1.11-5.61,4.26-6.96,5.57-1.11,1.07-2.2,1.93-3.29,3.02l-3.24,3.07c-1.09,1.05-2.07,2.01-3.14,3.08l-4.66,4.81c-.38.42-.44.44-1.13.51-6.52.69-13.98,1.51-20.6.55-.99-.14-2.48-.74-3.02-.02-.36.48-.08,1.02.27,1.24.47.28,1.1.21,1.7.21,4.12-.01,8.26.1,12.35-.22,1.49-.12,3.04-.16,4.51-.34,1.31-.16,3.18-.45,4.45-.48-.15.3-.04.14-.3.4l-.81.9c-.49.48-.67.76-1.13,1.21-1.36,1.36-2.6,2.9-3.87,4.34l-4.96,5.5c-1.54,1.66-3.07,3.13-4.67,4.7-3.56,3.5-1.11,4.09-.34,3.37,1.29-1.21,1.86-2.97,3.35-4.68,1.63-1.86,1.05-1.19,2.66-2.75,1.57-1.53.69-.55.99-1.53.06-.21,2.18-2.52,2.48-2.84.48-.52.83-.91,1.27-1.43l5.04-5.6c1.66-1.68.91-1.67,3.32-2,10.42-1.42,19.97-4.35,29.74-7.77,1.12-.39,2.79-.95,3.78-1.46,0,1.15-.6,3.03-.72,4.28l-.51,4.52c-.22,1.76-.31,2.5-.98,4.06-.6,1.4.35,2.86,1.62,3.01,1.49.17,2.75-1.13,2.27-2.65-.1-.33-.34-.61-.39-.85-.11-.52-.08-2.82-.17-3.6-.19-1.65-.2-3.17-.32-4.82-.03-.35.12-4.07.45-4.41.27-.23,3.03-1.37,3.59-1.63,1.1-.5,2.36-1.23,3.51-1.65-.47,1.62-1.15,3.05-1.58,4.83-.51,2.09-.18,1.68-.91,2.26-.54.44-.79,1.54-.31,2.29.33.51.21.73.16,1.45-.14,1.99-.34,5.26.63,6.96.39.7.75,1.29,1.82,1.3,1.96,0,2.45-1.1,3.38-2.27.23-.29.28-.25.51-.57.6-.82,1.33-1.76,1.64-2.77.12-.41.44-1.42.45-1.85.06-2.15-1.02-2.51-1.27-3.12.76-.18,4.53-.47,7.27-.58-.73,5.04-2.95,9.96-6.87,14.21-11.22,12.15-28.78,13.62-39.9,3.39-3.18-2.93-5.65-6.47-7.31-10.31-.63.03-.48-.14-.93.31-.2.2-.46.36-.7.55,1.77,3.96,4.44,7.6,7.98,10.58,12.58,10.61,31.38,9.01,41.98-3.57,3.79-4.49,6.01-9.77,6.75-15.19.86-.02,1.52,0,1.8.05.36.41.05.74.77.94,1.16.32,3.38.73,4.18-.15.71-.79.46-1.92-.28-2.4ZM60.51,27.29c-.32,1.78-.19,1.39-1.76,2.03-.9.37-1.8.7-2.74,1.04-1.89.66-3.77,1.35-5.62,1.95-5.99,1.94-18.07,5.25-24.56,5.81.16-.34.2-.29.49-.56.17-.17.28-.28.44-.46,1.35-1.45,5.11-5.3,6.58-6.68,2.6-2.42,5.12-4.83,7.93-7.22,2.34-1.98,8.39-6.7,11.14-7.8,1.74-.69,7.37-3.24,8.71-1.22,1.72,2.58-.05,10.03-.62,13.12ZM71.35,21.34l2.71-4.87c1.98-2.97,4.13-5.95,7.06-8.01.51-.36,2.23-1.18,2.66-.35,1.21,2.32-1.53,6.02-2.87,7.81-.71.95-5.11,4.52-6.1,5.17-.82.53-3.98,2.59-4.69,2.84.19-.76.86-1.84,1.23-2.6ZM71.37,39.85c-.15.58-.58,1.67-.89,1.99-.27.28-1.13,1.15-1.7.95-.42-.15-1.01-1.01-1.2-1.59-.62-1.87-.74-2.84-.71-5.03,2.46.17,3.52-.44,4.38,1.27.38.73.35,1.56.13,2.41ZM80.26,32.88c-3.07.03-6.12.17-9.22.17-.79,0-2.96-.35-3.74-.52.14-1.36.64-3.04,1.07-4.24.26-.74.48-1.32.74-1.97.42-1.07.18-.98,1.16-1.54,3.16-1.79,5.57-3.38,7.94-5.36,1.8,4.28,2.53,8.9,2.05,13.46Z"></path></g></g></svg>