<svg width="33" height="33" viewBox="0 0 33 33" fill="none" xmlns="http://www.w3.org/2000/svg">
<path d="M16.7256 16.9512C18.208 16.9512 19.4756 16.4248 20.5283 15.3721C21.5811 14.3193 22.1074 13.0518 22.1074 11.5693C22.1074 10.0869 21.5811 8.81934 20.5283 7.7666C19.4756 6.71387 18.208 6.1875 16.7256 6.1875C15.2432 6.1875 13.9756 6.71387 12.9229 7.7666C11.8701 8.81934 11.3438 10.0869 11.3438 11.5693C11.3438 13.0518 11.8701 14.3193 12.9229 15.3721C13.9756 16.4248 15.2432 16.9512 16.7256 16.9512ZM16.7256 8.25C17.6279 8.25 18.4067 8.57227 19.062 9.2168C19.7173 9.86133 20.0449 10.6455 20.0449 11.5693C20.0449 12.4717 19.7173 13.2505 19.062 13.9058C18.4067 14.561 17.6279 14.8887 16.7256 14.8887C15.8018 14.8887 15.0176 14.561 14.373 13.9058C13.7285 13.2505 13.4062 12.4717 13.4062 11.5693C13.4062 10.6455 13.7285 9.86133 14.373 9.2168C15.0176 8.57227 15.8018 8.25 16.7256 8.25ZM15.9521 32.4521C16.0596 32.5381 16.1509 32.6133 16.2261 32.6777C16.3013 32.7422 16.3818 32.7959 16.4678 32.8389C16.5322 32.8818 16.5913 32.9087 16.645 32.9194C16.6987 32.9302 16.7471 32.9355 16.79 32.9355C16.8545 32.9355 16.9136 32.9302 16.9673 32.9194C17.021 32.9087 17.0693 32.8818 17.1123 32.8389C17.1123 32.8389 17.1177 32.8389 17.1284 32.8389C17.1392 32.8389 17.1445 32.8389 17.1445 32.8389C17.209 32.7959 17.2842 32.7422 17.3701 32.6777C17.4561 32.6133 17.542 32.5381 17.6279 32.4521C17.6279 32.4521 18.1328 31.8613 19.1426 30.6797C20.1523 29.498 21.2856 27.9727 22.5425 26.1035C23.7993 24.2344 24.9971 22.1396 26.1357 19.8193C27.2529 17.5205 27.9404 15.2432 28.1982 12.9873C28.2197 12.751 28.2412 12.5146 28.2627 12.2783C28.2842 12.042 28.2949 11.8057 28.2949 11.5693C28.2949 9.95801 27.9834 8.4541 27.3604 7.05762C26.7588 5.66113 25.937 4.43652 24.895 3.38379C23.853 2.33105 22.623 1.50391 21.2051 0.902344C19.8086 0.300781 18.3154 0 16.7256 0C15.1143 0 13.6104 0.300781 12.2139 0.902344C10.8174 1.50391 9.59277 2.33105 8.54004 3.38379C7.4873 4.43652 6.66016 5.66113 6.05859 7.05762C5.45703 8.4541 5.15625 9.95801 5.15625 11.5693C5.15625 11.8057 5.16699 12.042 5.18848 12.2783C5.20996 12.5146 5.23145 12.751 5.25293 12.9873C5.51074 15.2432 6.20898 17.5312 7.34766 19.8516C8.48633 22.1504 9.69482 24.2344 10.9731 26.1035C12.2515 27.9727 13.4062 29.498 14.4375 30.6797C15.4473 31.8613 15.9521 32.4521 15.9521 32.4521ZM16.7256 2.0625C18.0361 2.0625 19.2607 2.30957 20.3994 2.80371C21.5596 3.29785 22.5693 3.97461 23.4287 4.83398C24.2881 5.69336 24.9648 6.70312 25.459 7.86328C25.9746 9.02344 26.2324 10.2588 26.2324 11.5693C26.2324 11.7412 26.2217 11.9238 26.2002 12.1172C26.1787 12.3105 26.1572 12.5254 26.1357 12.7617C25.9424 14.502 25.4482 16.2744 24.6533 18.0791C23.8584 19.8838 22.9668 21.5864 21.9785 23.187C20.9902 24.7876 20.0127 26.2109 19.0459 27.457C18.0791 28.7246 17.3271 29.6699 16.79 30.293C16.2529 29.6699 15.501 28.7246 14.5342 27.457C13.5459 26.2109 12.5469 24.7876 11.5371 23.187C10.5273 21.5864 9.61426 19.8838 8.79785 18.0791C7.98145 16.2529 7.4873 14.4805 7.31543 12.7617C7.27246 12.5254 7.24561 12.3105 7.23486 12.1172C7.22412 11.9238 7.21875 11.7412 7.21875 11.5693C7.21875 10.2588 7.46582 9.02344 7.95996 7.86328C8.4541 6.70312 9.13086 5.69336 9.99023 4.83398C10.8496 3.97461 11.8594 3.29785 13.0195 2.80371C14.1797 2.30957 15.415 2.0625 16.7256 2.0625Z" fill="black"/>
</svg>
