<svg width="32" height="32" viewBox="0 0 32 32" fill="none" xmlns="http://www.w3.org/2000/svg">
<path d="M26 26H6V6H20.75L22 4H6C5.45833 4 4.98958 4.19792 4.59375 4.59375C4.19792 4.98958 4 5.45833 4 6V26C4 26.5417 4.19792 27.0104 4.59375 27.4062C4.98958 27.8021 5.45833 28 6 28H26C26.5417 28 27.0104 27.8021 27.4062 27.4062C27.8021 27.0104 28 26.5417 28 26V12.7812L26 16V26ZM29.375 2.21875C29.25 2.15625 29.125 2.10417 29 2.0625C28.875 2.02083 28.7396 2 28.5938 2C28.3646 2 28.1458 2.05208 27.9375 2.15625C27.7292 2.26042 27.5625 2.41667 27.4375 2.625L16.5625 18.3125L12.3438 13.5312C12.0729 13.2604 11.7448 13.1302 11.3594 13.1406C10.974 13.151 10.6458 13.3021 10.375 13.5938C10.1042 13.8854 9.97917 14.224 10 14.6094C10.0208 14.9948 10.1667 15.3125 10.4375 15.5625L15.5 21.3438C15.5208 21.3646 15.5417 21.3854 15.5625 21.4062C15.5833 21.4271 15.6042 21.4479 15.625 21.4688L15.75 21.625C15.7708 21.625 15.7812 21.6302 15.7812 21.6406C15.7812 21.651 15.7917 21.6562 15.8125 21.6562C15.8333 21.6771 15.849 21.6979 15.8594 21.7188C15.8698 21.7396 15.8854 21.7604 15.9062 21.7812C15.9479 21.8021 15.9948 21.8229 16.0469 21.8438C16.099 21.8646 16.1458 21.8854 16.1875 21.9062C16.2083 21.9062 16.2188 21.9062 16.2188 21.9062C16.2188 21.9062 16.2292 21.9062 16.25 21.9062C16.3125 21.9479 16.3802 21.974 16.4531 21.9844C16.526 21.9948 16.6042 22 16.6875 22C16.875 22 17.0625 21.9635 17.25 21.8906C17.4375 21.8177 17.5938 21.7083 17.7188 21.5625C17.7604 21.5208 17.7865 21.4844 17.7969 21.4531C17.8073 21.4219 17.8229 21.3958 17.8438 21.375L29.7812 4.15625C29.9896 3.84375 30.0521 3.49479 29.9688 3.10938C29.8854 2.72396 29.6875 2.42708 29.375 2.21875Z" fill="#B89158"/>
</svg>
