<svg width="33" height="33" viewBox="0 0 33 33" fill="none" xmlns="http://www.w3.org/2000/svg">
<path d="M24.75 33C25.3086 33 25.792 32.7959 26.2002 32.3877C26.6084 31.9795 26.8125 31.4961 26.8125 30.9375V2.0625C26.8125 1.50391 26.6084 1.02051 26.2002 0.612305C25.792 0.204102 25.3086 0 24.75 0H10.3125C9.75391 0 9.27051 0.204102 8.8623 0.612305C8.4541 1.02051 8.25 1.50391 8.25 2.0625V30.9375C8.25 31.4961 8.4541 31.9795 8.8623 32.3877C9.27051 32.7959 9.75391 33 10.3125 33H24.75ZM16.5 29.7773C16.5 29.4551 16.6128 29.1812 16.8384 28.9556C17.064 28.73 17.3379 28.6172 17.6602 28.6172C17.9824 28.6172 18.2563 28.73 18.4819 28.9556C18.7075 29.1812 18.8203 29.4551 18.8203 29.7773C18.8203 30.0996 18.7075 30.3735 18.4819 30.5991C18.2563 30.8247 17.9824 30.9375 17.6602 30.9375C17.3379 30.9375 17.064 30.8247 16.8384 30.5991C16.6128 30.3735 16.5 30.0996 16.5 29.7773ZM21.6562 2.0625C21.9355 2.0625 22.1772 2.16455 22.3813 2.36865C22.5854 2.57275 22.6875 2.81445 22.6875 3.09375C22.6875 3.37305 22.5854 3.61475 22.3813 3.81885C22.1772 4.02295 21.9355 4.125 21.6562 4.125H19.5938C19.3145 4.125 19.0728 4.02295 18.8687 3.81885C18.6646 3.61475 18.5625 3.37305 18.5625 3.09375C18.5625 2.81445 18.6646 2.57275 18.8687 2.36865C19.0728 2.16455 19.3145 2.0625 19.5938 2.0625H21.6562ZM16.5 3.09375C16.5 3.37305 16.3979 3.61475 16.1938 3.81885C15.9897 4.02295 15.748 4.125 15.4688 4.125C15.1895 4.125 14.9478 4.02295 14.7437 3.81885C14.5396 3.61475 14.4375 3.37305 14.4375 3.09375C14.4375 2.81445 14.5396 2.57275 14.7437 2.36865C14.9478 2.16455 15.1895 2.0625 15.4688 2.0625C15.748 2.0625 15.9897 2.16455 16.1938 2.36865C16.3979 2.57275 16.5 2.81445 16.5 3.09375ZM10.3125 6.1875H24.75V26.8125H10.3125V6.1875Z" fill="black"/>
</svg>
