<svg width="40" height="32" viewBox="0 0 40 32" fill="none" xmlns="http://www.w3.org/2000/svg">
<rect width="32" height="32" rx="16" fill="white"/>
<path d="M27.6875 5.03125C25.8542 4.92708 23.9583 4.83333 22 4.75C20.0417 4.6875 18.0625 4.65104 16.0625 4.64062C14.0625 4.63021 12.0729 4.65625 10.0938 4.71875C8.11458 4.78125 6.1875 4.88542 4.3125 5.03125C3.16667 5.17708 2.22917 5.8125 1.5 6.9375C0.770833 8.0625 0.364583 9.16667 0.28125 10.25C0.09375 12.4792 0 14.3906 0 15.9844C0 17.5781 0.09375 19.4896 0.28125 21.7188C0.364583 22.8021 0.765625 23.9115 1.48438 25.0469C2.20312 26.1823 3.15625 26.8229 4.34375 26.9688C6.21875 27.0938 8.14583 27.1875 10.125 27.25C12.1042 27.3333 14.0938 27.375 16.0938 27.375C18.0938 27.375 20.0729 27.3438 22.0312 27.2812C23.9896 27.2188 25.875 27.1146 27.6875 26.9688C28.8125 26.7812 29.7448 26.1302 30.4844 25.0156C31.224 23.901 31.6354 22.8021 31.7188 21.7188C31.8229 20.6146 31.8958 19.5833 31.9375 18.625C31.9792 17.6875 32 16.7604 32 15.8438C32 14.9271 31.9792 14 31.9375 13.0625C31.8958 12.1042 31.8229 11.0729 31.7188 9.96875C31.6354 8.90625 31.2656 7.83333 30.6094 6.75C29.9531 5.66667 28.9792 5.09375 27.6875 5.03125ZM12 21.6562V10.1875L22 15.9375L12 21.6562Z" fill="black"/>
</svg>
