<svg width="40" height="32" viewBox="0 0 40 32" fill="none" xmlns="http://www.w3.org/2000/svg">
<rect width="32" height="32" rx="16" fill="white"/>
<path d="M16 2.875C18.1458 2.875 19.5469 2.88021 20.2031 2.89062C20.8594 2.90104 21.6146 2.92708 22.4688 2.96875C23.2396 3.01042 23.8542 3.08854 24.3125 3.20312C24.7708 3.31771 25.1458 3.42708 25.4375 3.53125C25.8125 3.67708 26.1406 3.84375 26.4219 4.03125C26.7031 4.21875 26.9896 4.44792 27.2812 4.71875C27.5521 5.01042 27.7812 5.29688 27.9688 5.57812C28.1562 5.85938 28.3229 6.1875 28.4688 6.5625C28.5729 6.85417 28.6823 7.22917 28.7969 7.6875C28.9115 8.14583 28.9896 8.76042 29.0312 9.53125C29.0729 10.3854 29.099 11.1406 29.1094 11.7969C29.1198 12.4531 29.125 13.8542 29.125 16C29.125 18.1458 29.1198 19.5469 29.1094 20.2031C29.099 20.8594 29.0729 21.6146 29.0312 22.4688C28.9896 23.2396 28.9115 23.8542 28.7969 24.3125C28.6823 24.7708 28.5729 25.1458 28.4688 25.4375C28.3229 25.8125 28.1562 26.1406 27.9688 26.4219C27.7812 26.7031 27.5521 26.9896 27.2812 27.2812C26.9896 27.5521 26.7031 27.7812 26.4219 27.9688C26.1406 28.1562 25.8125 28.3229 25.4375 28.4688C25.1458 28.5729 24.7708 28.6823 24.3125 28.7969C23.8542 28.9115 23.2396 28.9896 22.4688 29.0312C21.6146 29.0729 20.8594 29.099 20.2031 29.1094C19.5469 29.1198 18.1458 29.125 16 29.125C13.8542 29.125 12.4531 29.1198 11.7969 29.1094C11.1406 29.099 10.3854 29.0729 9.53125 29.0312C8.76042 28.9896 8.14583 28.9115 7.6875 28.7969C7.22917 28.6823 6.85417 28.5729 6.5625 28.4688C6.1875 28.3229 5.85938 28.1562 5.57812 27.9688C5.29688 27.7812 5.01042 27.5521 4.71875 27.2812C4.44792 26.9896 4.21875 26.7031 4.03125 26.4219C3.84375 26.1406 3.67708 25.8125 3.53125 25.4375C3.42708 25.1458 3.31771 24.7708 3.20312 24.3125C3.08854 23.8542 3.01042 23.2396 2.96875 22.4688C2.92708 21.6146 2.90104 20.8594 2.89062 20.2031C2.88021 19.5469 2.875 18.1458 2.875 16C2.875 13.8542 2.88021 12.4531 2.89062 11.7969C2.90104 11.1406 2.92708 10.3854 2.96875 9.53125C3.01042 8.76042 3.08854 8.14583 3.20312 7.6875C3.31771 7.22917 3.42708 6.85417 3.53125 6.5625C3.67708 6.1875 3.84375 5.85938 4.03125 5.57812C4.21875 5.29688 4.44792 5.01042 4.71875 4.71875C5.01042 4.44792 5.29688 4.21875 5.57812 4.03125C5.85938 3.84375 6.1875 3.67708 6.5625 3.53125C6.85417 3.42708 7.22917 3.31771 7.6875 3.20312C8.14583 3.08854 8.76042 3.01042 9.53125 2.96875C10.3854 2.92708 11.1406 2.90104 11.7969 2.89062C12.4531 2.88021 13.8542 2.875 16 2.875ZM16 0C13.8333 0 12.4062 0.00520897 11.7188 0.015625C11.0312 0.026041 10.2604 0.052084 9.40625 0.09375C8.55208 0.135416 7.81771 0.21875 7.20312 0.34375C6.58854 0.46875 6.03125 0.635416 5.53125 0.84375C4.98958 1.05208 4.48958 1.30208 4.03125 1.59375C3.57292 1.88542 3.125 2.25 2.6875 2.6875C2.25 3.125 1.88542 3.57292 1.59375 4.03125C1.30208 4.48958 1.05208 4.98958 0.84375 5.53125C0.635417 6.03125 0.46875 6.58854 0.34375 7.20312C0.21875 7.81771 0.135417 8.55208 0.09375 9.40625C0.0520833 10.2604 0.0260417 11.0312 0.015625 11.7188C0.00520833 12.4062 0 13.8333 0 16C0 18.1667 0.00520833 19.5938 0.015625 20.2812C0.0260417 20.9688 0.0520833 21.7396 0.09375 22.5938C0.135417 23.4479 0.21875 24.1823 0.34375 24.7969C0.46875 25.4115 0.635417 25.9688 0.84375 26.4688C1.05208 27.0104 1.30208 27.5104 1.59375 27.9688C1.88542 28.4271 2.25 28.875 2.6875 29.3125C3.125 29.75 3.57292 30.1146 4.03125 30.4062C4.48958 30.6979 4.98958 30.9479 5.53125 31.1562C6.03125 31.3646 6.58854 31.5312 7.20312 31.6562C7.81771 31.7812 8.55208 31.8646 9.40625 31.9062C10.2604 31.9479 11.0312 31.974 11.7188 31.9844C12.4062 31.9948 13.8333 32 16 32C18.1667 32 19.5938 31.9948 20.2812 31.9844C20.9688 31.974 21.7396 31.9479 22.5938 31.9062C23.4479 31.8646 24.1823 31.7812 24.7969 31.6562C25.4115 31.5312 25.9688 31.3646 26.4688 31.1562C27.0104 30.9479 27.5104 30.6979 27.9688 30.4062C28.4271 30.1146 28.875 29.75 29.3125 29.3125C29.75 28.875 30.1146 28.4271 30.4062 27.9688C30.6979 27.5104 30.9479 27.0104 31.1562 26.4688C31.3646 25.9688 31.5312 25.4115 31.6562 24.7969C31.7812 24.1823 31.8646 23.4479 31.9062 22.5938C31.9479 21.7396 31.974 20.9688 31.9844 20.2812C31.9948 19.5938 32 18.1667 32 16C32 13.8333 31.9948 12.4062 31.9844 11.7188C31.974 11.0312 31.9479 10.2604 31.9062 9.40625C31.8646 8.55208 31.7812 7.81771 31.6562 7.20312C31.5312 6.58854 31.3646 6.03125 31.1562 5.53125C30.9479 4.98958 30.6979 4.48958 30.4062 4.03125C30.1146 3.57292 29.75 3.125 29.3125 2.6875C28.875 2.25 28.4271 1.88542 27.9688 1.59375C27.5104 1.30208 27.0104 1.05208 26.4688 0.84375C25.9688 0.635416 25.4115 0.46875 24.7969 0.34375C24.1823 0.21875 23.4479 0.135416 22.5938 0.09375C21.7396 0.052084 20.9688 0.026041 20.2812 0.015625C19.5938 0.00520897 18.1667 0 16 0ZM16 7.78125C14.875 7.78125 13.8125 8 12.8125 8.4375C11.8125 8.85417 10.9375 9.4375 10.1875 10.1875C9.4375 10.9375 8.85417 11.8125 8.4375 12.8125C8 13.8125 7.78125 14.875 7.78125 16C7.78125 17.125 8 18.1875 8.4375 19.1875C8.85417 20.1875 9.4375 21.0625 10.1875 21.8125C10.9375 22.5625 11.8125 23.1458 12.8125 23.5625C13.8125 24 14.875 24.2188 16 24.2188C17.125 24.2188 18.1875 24 19.1875 23.5625C20.1875 23.1458 21.0625 22.5625 21.8125 21.8125C22.5625 21.0625 23.1458 20.1875 23.5625 19.1875C24 18.1875 24.2188 17.125 24.2188 16C24.2188 14.875 24 13.8125 23.5625 12.8125C23.1458 11.8125 22.5625 10.9375 21.8125 10.1875C21.0625 9.4375 20.1875 8.85417 19.1875 8.4375C18.1875 8 17.125 7.78125 16 7.78125ZM16 21.3438C14.5208 21.3438 13.2604 20.8229 12.2188 19.7812C11.1771 18.7396 10.6562 17.4792 10.6562 16C10.6562 14.5208 11.1771 13.2604 12.2188 12.2188C13.2604 11.1771 14.5208 10.6562 16 10.6562C17.4792 10.6562 18.7396 11.1771 19.7812 12.2188C20.8229 13.2604 21.3438 14.5208 21.3438 16C21.3438 17.4792 20.8229 18.7396 19.7812 19.7812C18.7396 20.8229 17.4792 21.3438 16 21.3438ZM26.4688 7.46875C26.4688 7.98958 26.2812 8.4375 25.9062 8.8125C25.5312 9.1875 25.0729 9.375 24.5312 9.375C24.0104 9.375 23.5625 9.1875 23.1875 8.8125C22.8125 8.4375 22.625 7.98958 22.625 7.46875C22.625 6.92708 22.8125 6.46875 23.1875 6.09375C23.5625 5.71875 24.0104 5.53125 24.5312 5.53125C25.0729 5.53125 25.5312 5.71875 25.9062 6.09375C26.2812 6.46875 26.4688 6.92708 26.4688 7.46875Z" fill="black"/>
</svg>
